# xmcd
#
# Track frame offsets:
#	150
#	13320
#	27980
#	40009
#	54901
#	69696
#	83023
#	98217
#	110290
#	124555
#	138929
#	152340
#	166731
#	186257
#
# Disc length: 2689 seconds
#
# Revision: 0
# Processed by: cddbd v1.5.1PL2 Copyright (c) Steve Scherf et al.
# Submitted via: audiograbber 1.83.01
#
DISCID=a70a7f0e
DTITLE=Hjalti Skaalum - Sum Árini Ganga
DYEAR=2005
DGENRE=Country
TTITLE0=Fylgjast vit hond í hond
TTITLE1=For tíni vøkru eygu skuld
TTITLE2=Føroyar er mítt land
TTITLE3=Í suðurlondum
TTITLE4=Einki er sum kærleikin
TTITLE5=Eg elski teg hjartans kæri skattur
TTITLE6=Sum árini ganga
TTITLE7=Hjúnarbands valsurin
TTITLE8=Eg gekk ein túr í bønum
TTITLE9=Nei, sum sólin á fjøllini skínur
TTITLE10=Silvurbrúðar valsurin
TTITLE11=Tá farast skal á fjall
TTITLE12=Minnini eru ein dýrabarur skattur
TTITLE13=Tann fagra "Norrøna"
EXTD=
EXTT0=
EXTT1=
EXTT2=
EXTT3=
EXTT4=
EXTT5=
EXTT6=
EXTT7=
EXTT8=
EXTT9=
EXTT10=
EXTT11=
EXTT12=
EXTT13=
PLAYORDER=
